<?xml version="1.0" encoding="UTF-8" standalone="no"?>
<!-- Created with Inkscape (http://www.inkscape.org/) -->

<svg
   width="16"
   height="15.999999"
   viewBox="0 0 4.2333332 4.233333"
   version="1.1"
   id="svg10387"
   inkscape:version="1.2 (dc2aedaf03, 2022-05-15)"
   sodipodi:docname="logomini.svg"
   xmlns:inkscape="http://www.inkscape.org/namespaces/inkscape"
   xmlns:sodipodi="http://sodipodi.sourceforge.net/DTD/sodipodi-0.dtd"
   xmlns="http://www.w3.org/2000/svg"
   xmlns:svg="http://www.w3.org/2000/svg">
  <sodipodi:namedview
     id="namedview10389"
     pagecolor="#505050"
     bordercolor="#ffffff"
     borderopacity="1"
     inkscape:showpageshadow="0"
     inkscape:pageopacity="0"
     inkscape:pagecheckerboard="1"
     inkscape:deskcolor="#505050"
     inkscape:document-units="px"
     showgrid="false"
     inkscape:zoom="8.4027039"
     inkscape:cx="-21.659694"
     inkscape:cy="12.555482"
     inkscape:window-width="1920"
     inkscape:window-height="991"
     inkscape:window-x="-9"
     inkscape:window-y="-9"
     inkscape:window-maximized="1"
     inkscape:current-layer="layer1" />
  <defs
     id="defs10384" />
  <g
     inkscape:label="Layer 1"
     inkscape:groupmode="layer"
     id="layer1">
    <g
       aria-label="0"
       id="text297"
       style="font-size:4.91681px;font-family:'Noto Sans Mono';-inkscape-font-specification:'Noto Sans Mono';fill:#cccccc;stroke-width:2.25354;stroke-linejoin:round;paint-order:stroke fill markers">
      <path
         id="rect327"
         style="fill:#220000;stroke-width:0.154063;stroke-linecap:round;stroke-linejoin:round;paint-order:stroke fill markers"
         d="M 0.82682264,0 H 3.4065105 C 3.8645704,0 4.2333332,0.36876286 4.2333332,0.82682268 V 3.4065106 c 0,0.4580598 -0.3687628,0.8268226 -0.8268227,0.8268226 H 0.82682264 C 0.36876287,4.2333332 0,3.8645704 0,3.4065106 V 0.82682268 C 0,0.36876286 0.36876287,0 0.82682264,0 Z" />
      <path
         d="m 2.1166668,3.9235947 q -0.3736776,0 -0.6244349,-0.206506 Q 1.2463914,3.5105827 1.1234712,3.1074042 1.0054677,2.7042258 1.0054677,2.1092918 q 0,-0.5506827 0.1081699,-0.9538611 0.1081698,-0.40317847 0.3540103,-0.62443492 0.2458405,-0.22125645 0.6539357,-0.22125645 0.4080952,0 0.6490189,0.22125645 0.2458405,0.22125645 0.3490936,0.62443492 0.1081698,0.3982616 0.1081698,0.9391107 0,0.4474297 -0.063919,0.7866896 Q 3.1000288,3.2204909 2.9623581,3.4564978 2.8296043,3.6875878 2.6181814,3.8055913 2.4116754,3.9235947 2.1166668,3.9235947 Z M 1.4676479,3.4122465 1.3053931,3.2008236 2.7361849,0.76700266 2.9082732,0.97842549 Z m 0.6539357,0.2556741 q 0.4375961,0 0.6391853,-0.3835112 0.2015892,-0.3835112 0.2015892,-1.1849512 0,-0.4769306 -0.078669,-0.8161905 Q 2.8050202,0.93909101 2.6181814,0.75225223 2.4362595,0.56541345 2.1215836,0.56541345 q -0.309759,0 -0.4965978,0.18683878 -0.181922,0.18192197 -0.2655077,0.52609867 -0.083586,0.3441767 -0.083586,0.8309409 0,0.776856 0.2015892,1.1702008 0.206506,0.388428 0.6441023,0.388428 z"
         id="path1405"
         style="display:none" />
      <path
         d="m 2.1166668,3.9235947 c -0.2491184,0 -0.4572634,-0.068835 -0.6244349,-0.206506 C 1.3283382,3.579418 1.205418,3.3761899 1.1234712,3.1074042 1.0448022,2.8386186 1.0054677,2.5059145 1.0054677,2.1092918 c 0,-0.3671218 0.036057,-0.6850755 0.1081699,-0.9538611 0.072113,-0.26878565 0.1901166,-0.47693062 0.3540103,-0.62443492 0.1638937,-0.1475043 0.3818722,-0.22125645 0.6539357,-0.22125645 0.2720635,0 0.4884031,0.0737522 0.6490189,0.22125645 0.1638937,0.1475043 0.2802582,0.35564927 0.3490936,0.62443492 0.072113,0.2655077 0.1081698,0.5785446 0.1081698,0.9391107 0,0.2982865 -0.021306,0.5605163 -0.063919,0.7866896 C 3.1213348,3.1074043 3.0541386,3.2991599 2.9623581,3.4564978 2.8738556,3.6105578 2.75913,3.7269223 2.6181814,3.8055913 2.4805107,3.8842602 2.3133392,3.9235947 2.1166668,3.9235947 Z m 0.00492,-0.2556741 c 0.2917307,0 0.5047925,-0.1278371 0.6391853,-0.3835112 0.1343928,-0.2556741 0.2015892,-0.6506579 0.2015892,-1.1849512 0,-0.3179537 -0.026223,-0.5900172 -0.078669,-0.8161905 C 2.8312432,1.0538166 2.7427406,0.87681142 2.6181814,0.75225223 2.4969001,0.62769304 2.3313675,0.56541345 2.1215836,0.56541345 c -0.206506,0 -0.3720386,0.0622796 -0.4965978,0.18683878 C 1.5037045,0.87353354 1.4152019,1.0488998 1.3594781,1.2783509 1.3037541,1.507802 1.2758921,1.7847823 1.2758921,2.1092918 c 0,0.517904 0.067196,0.9079709 0.2015892,1.1702008 0.1376707,0.258952 0.3523714,0.388428 0.6441023,0.388428 z"
         id="path1409"
         sodipodi:nodetypes="sccssssccssccssssccsssscs" />
    </g>
    <path
       style="display:none;fill:none;fill-opacity:1;fill-rule:nonzero;stroke:#cccccc;stroke-width:0.119558;stroke-linecap:round;stroke-linejoin:round;stroke-dasharray:none;stroke-opacity:1;paint-order:stroke fill markers"
       d="M 1.21689,3.3630787 1.4456397,3.0489208 1.6748388,2.978856 1.4840109,2.7026134 1.8380937,2.693869 1.6982864,2.4426698 2.0227847,2.4193876 1.9141622,2.1834952 2.1901501,2.1363982 1.7003737,1.7134117 2.7386598,2.0405044 2.0097991,1.5001579 2.7951417,1.7030877 2.3538756,1.3039119 2.8245444,1.3523754 2.7187418,1.1178698 2.8109681,1.0984816 3.0312036,0.79160624"
       id="path7170"
       sodipodi:nodetypes="cccccccccccccccccc" />
    <path
       style="fill:none;fill-opacity:1;fill-rule:nonzero;stroke:#cccccc;stroke-width:0.275167;stroke-linecap:butt;stroke-linejoin:round;stroke-dasharray:none;stroke-opacity:1;paint-order:stroke fill markers"
       d="M 1.3301902,3.241084 1.5470666,2.9189293 1.7903044,2.7517237 1.8047391,2.4166623 2.0922414,2.2728037 1.899838,1.7929126 2.5847138,1.927299 2.3841595,1.4416996 2.6845472,1.3068647 2.9261796,0.96177746"
       id="path9042"
       sodipodi:nodetypes="cccccccccc" />
  </g>
</svg>
